<?xml version="1.0" encoding="utf-8"?><svg xmlns="http://www.w3.org/2000/svg" xmlns:xlink="http://www.w3.org/1999/xlink"><symbol fill="none" viewBox="0 0 24 25" id="bolt" xmlns="http://www.w3.org/2000/svg"><path d="M15.726 4.936a.5.5 0 0 0-.465-.686h-5.9a.5.5 0 0 0-.475.342l-2.667 8a.5.5 0 0 0 .475.658H9.36a.5.5 0 0 1 .485.621L8.438 19.5c-.123.492.48.833.838.475l8.87-8.87a.5.5 0 0 0-.353-.854h-3.454a.5.5 0 0 1-.465-.686l1.852-4.628Z" stroke="#6170FF" stroke-width="2" stroke-linecap="round" stroke-linejoin="round"/></symbol><symbol fill="none" viewBox="0 0 24 25" id="boltbolt" xmlns="http://www.w3.org/2000/svg"><path d="M15.726 4.936a.5.5 0 0 0-.465-.686h-5.9a.5.5 0 0 0-.475.342l-2.667 8a.5.5 0 0 0 .475.658H9.36a.5.5 0 0 1 .485.621L8.438 19.5c-.123.492.48.833.838.475l8.87-8.87a.5.5 0 0 0-.353-.854h-3.454a.5.5 0 0 1-.465-.686l1.852-4.628Z" stroke="#6170FF" stroke-width="2" stroke-linecap="round" stroke-linejoin="round"/></symbol><symbol fill="none" viewBox="0 0 24 24" id="heart" xmlns="http://www.w3.org/2000/svg"><path d="M12 20s9-4 9-10.286C21 6 18.965 4 16.454 4a4.465 4.465 0 0 0-3.214 1.38l-.52.54a1 1 0 0 1-1.44 0l-.52-.54A4.465 4.465 0 0 0 7.546 4C5 4 3 6 3 9.714 3 16 12 20 12 20Z" stroke="#6171FF" stroke-width="2" stroke-linecap="round" stroke-linejoin="round"/></symbol><symbol fill="none" viewBox="0 0 24 24" id="heartheart" xmlns="http://www.w3.org/2000/svg"><path d="M12 20s9-4 9-10.286C21 6 18.965 4 16.454 4a4.465 4.465 0 0 0-3.214 1.38l-.52.54a1 1 0 0 1-1.44 0l-.52-.54A4.465 4.465 0 0 0 7.546 4C5 4 3 6 3 9.714 3 16 12 20 12 20Z" stroke="#6171FF" stroke-width="2" stroke-linecap="round" stroke-linejoin="round"/></symbol><symbol fill="none" viewBox="0 0 24 24" id="mail" xmlns="http://www.w3.org/2000/svg"><path d="M2.5 12c0 5.735 2.235 7.5 9.5 7.5 7.265 0 9.5-1.765 9.5-7.5 0-2.712-.5-4.536-1.794-5.705C18.262 4.99 15.83 4.5 12 4.5c-3.83 0-6.262.49-7.705 1.795C3 7.465 2.5 9.288 2.5 12Z" stroke="#6171FF" stroke-width="2" stroke-linecap="round" stroke-linejoin="round"/><path d="m19.705 6.294-6.29 6.292a2 2 0 0 1-2.83 0l-6.29-6.292" stroke="#6171FF" stroke-width="2" stroke-linecap="round" stroke-linejoin="round"/></symbol><symbol fill="none" viewBox="0 0 24 24" id="mailmail" xmlns="http://www.w3.org/2000/svg"><path d="M2.5 12c0 5.735 2.235 7.5 9.5 7.5 7.265 0 9.5-1.765 9.5-7.5 0-2.712-.5-4.536-1.794-5.705C18.262 4.99 15.83 4.5 12 4.5c-3.83 0-6.262.49-7.705 1.795C3 7.465 2.5 9.288 2.5 12Z" stroke="#6171FF" stroke-width="2" stroke-linecap="round" stroke-linejoin="round"/><path d="m19.705 6.294-6.29 6.292a2 2 0 0 1-2.83 0l-6.29-6.292" stroke="#6171FF" stroke-width="2" stroke-linecap="round" stroke-linejoin="round"/></symbol><symbol fill="none" viewBox="0 0 24 24" id="user" xmlns="http://www.w3.org/2000/svg"><path d="M12 21a9 9 0 1 0 0-18 9 9 0 0 0 0 18Z" stroke="#6171FF" stroke-width="2" stroke-linecap="round" stroke-linejoin="round"/><path d="M18 18.702C18 15.671 14.5 15 12 15s-6 .67-6 3.702M12 12a3 3 0 1 0 0-6 3 3 0 0 0 0 6Z" stroke="#6171FF" stroke-width="2" stroke-linecap="round" stroke-linejoin="round"/></symbol><symbol fill="none" viewBox="0 0 24 24" id="user2user" xmlns="http://www.w3.org/2000/svg"><path d="M12 21a9 9 0 1 0 0-18 9 9 0 0 0 0 18Z" stroke="#6171FF" stroke-width="2" stroke-linecap="round" stroke-linejoin="round"/><path d="M18 18.702C18 15.671 14.5 15 12 15s-6 .67-6 3.702M12 12a3 3 0 1 0 0-6 3 3 0 0 0 0 6Z" stroke="#6171FF" stroke-width="2" stroke-linecap="round" stroke-linejoin="round"/></symbol></svg>