<?xml version="1.0" encoding="utf-8"?><svg xmlns="http://www.w3.org/2000/svg" xmlns:xlink="http://www.w3.org/1999/xlink"><symbol viewBox="0 0 267 267" id="decor_first" xmlns="http://www.w3.org/2000/svg"><path fill-rule="evenodd" d="M133.5 1C206.678 1 266 60.322 266 133.5S206.678 266 133.5 266 1 206.678 1 133.5 60.322 1 133.5 1Z"/></symbol><symbol viewBox="0 0 515 515" id="decor_second" xmlns="http://www.w3.org/2000/svg"><path fill-rule="evenodd" d="M257.5 1C399.161 1 514 115.839 514 257.5 514 399.16 399.161 514 257.5 514S1 399.16 1 257.5C1 115.839 115.839 1 257.5 1Z"/></symbol><symbol viewBox="0 0 1000 1000" id="decor_third" xmlns="http://www.w3.org/2000/svg"><path fill-rule="evenodd" d="M500 1c275.59 0 499 223.41 499 499 0 275.59-223.41 499-499 499C224.41 999 1 775.59 1 500 1 224.41 224.41 1 500 1Z"/></symbol></svg>